<svg width="85" height="45" viewBox="0 0 85 45" fill="none" xmlns="http://www.w3.org/2000/svg">
<path d="M12.4762 14L9.71623 5.168H11.1922L12.5002 9.74C12.7882 10.76 13.0042 11.612 13.3042 12.632H13.3642C13.6762 11.612 13.8802 10.76 14.1682 9.74L15.4642 5.168H16.8922L14.1322 14H12.4762ZM18.0172 14V5.168H19.4212V14H18.0172ZM21.7204 14V5.168H26.9524V6.344H23.1244V8.792H26.3524V9.98H23.1244V12.824H27.0844V14H21.7204ZM29.8277 14L28.0277 5.168H29.4677L30.2837 9.764C30.4517 10.7 30.6077 11.648 30.7637 12.608H30.8117C31.0037 11.648 31.2077 10.7 31.4117 9.764L32.5397 5.168H33.7757L34.9157 9.764C35.1317 10.688 35.3117 11.648 35.5277 12.608H35.5877C35.7317 11.648 35.8877 10.7 36.0317 9.764L36.8717 5.168H38.2037L36.4637 14H34.7357L33.5597 9.092C33.4037 8.408 33.2717 7.748 33.1517 7.076H33.1037C32.9717 7.748 32.8157 8.408 32.6837 9.092L31.5197 14H29.8277ZM42.3336 14V5.168H43.9416L45.5496 9.644C45.7656 10.22 45.9456 10.82 46.1496 11.42H46.1976C46.4136 10.82 46.5816 10.22 46.7736 9.644L48.3696 5.168H49.9776V14H48.6936V9.644C48.6936 8.84 48.8016 7.712 48.8736 6.908H48.8256L48.1056 8.948L46.5696 13.16H45.7056L44.1696 8.948L43.4616 6.908H43.4136C43.4856 7.712 43.5936 8.84 43.5936 9.644V14H42.3336ZM55.6666 14.168C53.3866 14.168 51.8146 12.404 51.8146 9.548C51.8146 6.704 53.3866 5.012 55.6666 5.012C57.9346 5.012 59.5066 6.704 59.5066 9.548C59.5066 12.404 57.9346 14.168 55.6666 14.168ZM55.6666 12.944C57.1306 12.944 58.0786 11.612 58.0786 9.548C58.0786 7.484 57.1306 6.224 55.6666 6.224C54.1906 6.224 53.2546 7.484 53.2546 9.548C53.2546 11.612 54.1906 12.944 55.6666 12.944ZM61.3415 14V5.168H64.2335C66.0575 5.168 67.4255 5.816 67.4255 7.736C67.4255 9.584 66.0575 10.436 64.2335 10.436H62.7455V14H61.3415ZM62.7455 9.32H64.0775C65.3495 9.32 66.0455 8.792 66.0455 7.736C66.0455 6.668 65.3495 6.296 64.0775 6.296H62.7455V9.32ZM66.1775 14L63.9695 10.076L65.0015 9.26L67.7375 14H66.1775ZM69.2165 14V5.168H74.4485V6.344H70.6205V8.792H73.8485V9.98H70.6205V12.824H74.5805V14H69.2165Z" fill="black"/>
<path d="M14.8071 28.6829C14.3165 28.4292 13.7132 28.6212 13.4594 29.1117C13.2057 29.6023 13.3977 30.2057 13.8882 30.4594L14.8071 28.6829ZM41.1118 44.5405L42 45L42.9189 43.2235L42.0306 42.7641L41.1118 44.5405ZM13.8882 30.4594L41.1118 44.5405L42.0306 42.7641L14.8071 28.6829L13.8882 30.4594Z" fill="black"/>
<path d="M69.1929 28.6829C69.6835 28.4292 70.2868 28.6212 70.5406 29.1117C70.7943 29.6023 70.6023 30.2057 70.1118 30.4594L69.1929 28.6829ZM42.8882 44.5405L42 45L41.0811 43.2235L41.9694 42.7641L42.8882 44.5405ZM70.1118 30.4594L42.8882 44.5405L41.9694 42.7641L69.1929 28.6829L70.1118 30.4594Z" fill="black"/>
</svg>
